<?xml version="1.0" encoding="UTF-8" standalone="no"?>
<!DOCTYPE svg PUBLIC "-//W3C//DTD SVG 1.1//EN"
 "http://www.w3.org/Graphics/SVG/1.1/DTD/svg11.dtd">
<!-- Generated by graphviz version 2.47.0 (20210316.0004)
 -->
<!-- Title: dependencies Pages: 1 -->
<svg width="2474pt" height="284pt"
 viewBox="0.00 0.00 2474.00 284.00" xmlns="http://www.w3.org/2000/svg" xmlns:xlink="http://www.w3.org/1999/xlink">
<g id="graph0" class="graph" transform="scale(1 1) rotate(0) translate(4 280)">
<title>dependencies</title>
<polygon fill="white" stroke="transparent" points="-4,4 -4,-280 2470,-280 2470,4 -4,4"/>
<text text-anchor="start" x="1212.01" y="-42.4" font-family="Times-12" font-weight="bold" font-size="14.00">Legend</text>
<polygon fill="#ffffb3" stroke="transparent" points="999,-10 999,-30 1019,-30 1019,-10 999,-10"/>
<text text-anchor="start" x="1022.63" y="-15.4" font-family="Times-12" font-size="14.00"> &#160;Declarations</text>
<polygon fill="#8dd3c7" stroke="transparent" points="1112,-10 1112,-30 1132,-30 1132,-10 1112,-10"/>
<text text-anchor="start" x="1135.73" y="-15.4" font-family="Times-12" font-size="14.00"> &#160;Module</text>
<polygon fill="#80b1d3" stroke="transparent" points="1198,-10 1198,-30 1218,-30 1218,-10 1198,-10"/>
<text text-anchor="start" x="1221.78" y="-15.4" font-family="Times-12" font-size="14.00"> &#160;Bootstrap</text>
<polygon fill="#fdb462" stroke="transparent" points="1295,-10 1295,-30 1315,-30 1315,-10 1295,-10"/>
<text text-anchor="start" x="1318.67" y="-15.4" font-family="Times-12" font-size="14.00"> &#160;Providers</text>
<polygon fill="#fb8072" stroke="transparent" points="1391,-10 1391,-30 1411,-30 1411,-10 1391,-10"/>
<text text-anchor="start" x="1414.73" y="-15.4" font-family="Times-12" font-size="14.00"> &#160;Exports</text>
<g id="clust1" class="cluster">
<title>cluster_AppModule</title>
<polygon fill="none" stroke="black" stroke-dasharray="1,5" points="8,-70 8,-268 2458,-268 2458,-70 8,-70"/>
</g>
<g id="clust2" class="cluster">
<title>cluster_AppModule_declarations</title>
<polygon fill="none" stroke="black" points="168,-78 168,-130 2450,-130 2450,-78 168,-78"/>
</g>
<g id="clust16" class="cluster">
<title>cluster_AppModule_imports</title>
<polygon fill="none" stroke="black" points="16,-78 16,-130 160,-130 160,-78 16,-78"/>
</g>
<g id="clust18" class="cluster">
<title>cluster_AppModule_bootstrap</title>
<polygon fill="none" stroke="black" points="1173,-208 1173,-260 1297,-260 1297,-208 1173,-208"/>
</g>
<!-- AccountsComponent -->
<g id="node1" class="node">
<title>AccountsComponent</title>
<polygon fill="#ffffb3" stroke="black" points="2442.2,-122 2307.8,-122 2307.8,-86 2442.2,-86 2442.2,-122"/>
<text text-anchor="middle" x="2375" y="-99.8" font-family="Times,serif" font-size="14.00">AccountsComponent</text>
</g>
<!-- AppModule -->
<g id="node14" class="node">
<title>AppModule</title>
<polygon fill="#8dd3c7" stroke="black" points="1276.66,-187 1273.66,-191 1252.66,-191 1249.66,-187 1193.34,-187 1193.34,-151 1276.66,-151 1276.66,-187"/>
<text text-anchor="middle" x="1235" y="-164.8" font-family="Times,serif" font-size="14.00">AppModule</text>
</g>
<!-- AccountsComponent&#45;&gt;AppModule -->
<g id="edge1" class="edge">
<title>AccountsComponent&#45;&gt;AppModule</title>
<path fill="none" stroke="black" d="M2375,-122.09C2375,-145.13 2375,-182 2375,-182 2375,-182 1286.93,-182 1286.93,-182"/>
<polygon fill="black" stroke="black" points="1286.93,-178.5 1276.93,-182 1286.93,-185.5 1286.93,-178.5"/>
</g>
<!-- AppComponent -->
<g id="node2" class="node">
<title>AppComponent</title>
<polygon fill="#ffffb3" stroke="black" points="2289.94,-122 2184.06,-122 2184.06,-86 2289.94,-86 2289.94,-122"/>
<text text-anchor="middle" x="2237" y="-99.8" font-family="Times,serif" font-size="14.00">AppComponent</text>
</g>
<!-- AppComponent&#45;&gt;AppModule -->
<g id="edge2" class="edge">
<title>AppComponent&#45;&gt;AppModule</title>
<path fill="none" stroke="black" d="M2237,-122.04C2237,-143.66 2237,-177 2237,-177 2237,-177 1286.78,-177 1286.78,-177"/>
<polygon fill="black" stroke="black" points="1286.78,-173.5 1276.78,-177 1286.78,-180.5 1286.78,-173.5"/>
</g>
<!-- CustomerAccountsComponent -->
<g id="node3" class="node">
<title>CustomerAccountsComponent</title>
<polygon fill="#ffffb3" stroke="black" points="2166.14,-122 1977.86,-122 1977.86,-86 2166.14,-86 2166.14,-122"/>
<text text-anchor="middle" x="2072" y="-99.8" font-family="Times,serif" font-size="14.00">CustomerAccountsComponent</text>
</g>
<!-- CustomerAccountsComponent&#45;&gt;AppModule -->
<g id="edge3" class="edge">
<title>CustomerAccountsComponent&#45;&gt;AppModule</title>
<path fill="none" stroke="black" d="M2072,-122.22C2072,-142.37 2072,-172 2072,-172 2072,-172 1286.79,-172 1286.79,-172"/>
<polygon fill="black" stroke="black" points="1286.79,-168.5 1276.79,-172 1286.79,-175.5 1286.79,-168.5"/>
</g>
<!-- CustomersByCityComponent -->
<g id="node4" class="node">
<title>CustomersByCityComponent</title>
<polygon fill="#ffffb3" stroke="black" points="1959.67,-122 1778.33,-122 1778.33,-86 1959.67,-86 1959.67,-122"/>
<text text-anchor="middle" x="1869" y="-99.8" font-family="Times,serif" font-size="14.00">CustomersByCityComponent</text>
</g>
<!-- CustomersByCityComponent&#45;&gt;AppModule -->
<g id="edge4" class="edge">
<title>CustomersByCityComponent&#45;&gt;AppModule</title>
<path fill="none" stroke="black" d="M1869,-122.22C1869,-140.83 1869,-167 1869,-167 1869,-167 1287.09,-167 1287.09,-167"/>
<polygon fill="black" stroke="black" points="1287.09,-163.5 1277.09,-167 1287.09,-170.5 1287.09,-163.5"/>
</g>
<!-- CustomersComponent -->
<g id="node5" class="node">
<title>CustomersComponent</title>
<polygon fill="#ffffb3" stroke="black" points="1760.71,-122 1619.29,-122 1619.29,-86 1760.71,-86 1760.71,-122"/>
<text text-anchor="middle" x="1690" y="-99.8" font-family="Times,serif" font-size="14.00">CustomersComponent</text>
</g>
<!-- CustomersComponent&#45;&gt;AppModule -->
<g id="edge5" class="edge">
<title>CustomersComponent&#45;&gt;AppModule</title>
<path fill="none" stroke="black" d="M1690,-122.03C1690,-139.06 1690,-162 1690,-162 1690,-162 1286.99,-162 1286.99,-162"/>
<polygon fill="black" stroke="black" points="1286.99,-158.5 1276.99,-162 1286.99,-165.5 1286.99,-158.5"/>
</g>
<!-- EditCustomerComponent -->
<g id="node6" class="node">
<title>EditCustomerComponent</title>
<polygon fill="#ffffb3" stroke="black" points="1601.6,-122 1442.4,-122 1442.4,-86 1601.6,-86 1601.6,-122"/>
<text text-anchor="middle" x="1522" y="-99.8" font-family="Times,serif" font-size="14.00">EditCustomerComponent</text>
</g>
<!-- EditCustomerComponent&#45;&gt;AppModule -->
<g id="edge6" class="edge">
<title>EditCustomerComponent&#45;&gt;AppModule</title>
<path fill="none" stroke="black" d="M1522,-122.24C1522,-137.57 1522,-157 1522,-157 1522,-157 1286.73,-157 1286.73,-157"/>
<polygon fill="black" stroke="black" points="1286.73,-153.5 1276.73,-157 1286.73,-160.5 1286.73,-153.5"/>
</g>
<!-- HeatmapTransactionsComponent -->
<g id="node7" class="node">
<title>HeatmapTransactionsComponent</title>
<polygon fill="#ffffb3" stroke="black" points="1424.89,-122 1221.11,-122 1221.11,-86 1424.89,-86 1424.89,-122"/>
<text text-anchor="middle" x="1323" y="-99.8" font-family="Times,serif" font-size="14.00">HeatmapTransactionsComponent</text>
</g>
<!-- HeatmapTransactionsComponent&#45;&gt;AppModule -->
<g id="edge7" class="edge">
<title>HeatmapTransactionsComponent&#45;&gt;AppModule</title>
<path fill="none" stroke="black" d="M1249.07,-122.11C1249.07,-122.11 1249.07,-140.99 1249.07,-140.99"/>
<polygon fill="black" stroke="black" points="1245.57,-140.99 1249.07,-150.99 1252.57,-140.99 1245.57,-140.99"/>
</g>
<!-- MainComponent -->
<g id="node8" class="node">
<title>MainComponent</title>
<polygon fill="#ffffb3" stroke="black" points="1203.38,-122 1092.62,-122 1092.62,-86 1203.38,-86 1203.38,-122"/>
<text text-anchor="middle" x="1148" y="-99.8" font-family="Times,serif" font-size="14.00">MainComponent</text>
</g>
<!-- MainComponent&#45;&gt;AppModule -->
<g id="edge8" class="edge">
<title>MainComponent&#45;&gt;AppModule</title>
<path fill="none" stroke="black" d="M1198.31,-122.11C1198.31,-122.11 1198.31,-140.99 1198.31,-140.99"/>
<polygon fill="black" stroke="black" points="1194.81,-140.99 1198.31,-150.99 1201.81,-140.99 1194.81,-140.99"/>
</g>
<!-- MobileappVsWebsiteComponent -->
<g id="node9" class="node">
<title>MobileappVsWebsiteComponent</title>
<polygon fill="#ffffb3" stroke="black" points="1074.91,-122 871.09,-122 871.09,-86 1074.91,-86 1074.91,-122"/>
<text text-anchor="middle" x="973" y="-99.8" font-family="Times,serif" font-size="14.00">MobileappVsWebsiteComponent</text>
</g>
<!-- MobileappVsWebsiteComponent&#45;&gt;AppModule -->
<g id="edge9" class="edge">
<title>MobileappVsWebsiteComponent&#45;&gt;AppModule</title>
<path fill="none" stroke="black" d="M973,-122.24C973,-137.57 973,-157 973,-157 973,-157 1183.2,-157 1183.2,-157"/>
<polygon fill="black" stroke="black" points="1183.2,-160.5 1193.2,-157 1183.2,-153.5 1183.2,-160.5"/>
</g>
<!-- NewCustomerComponent -->
<g id="node10" class="node">
<title>NewCustomerComponent</title>
<polygon fill="#ffffb3" stroke="black" points="853.2,-122 690.8,-122 690.8,-86 853.2,-86 853.2,-122"/>
<text text-anchor="middle" x="772" y="-99.8" font-family="Times,serif" font-size="14.00">NewCustomerComponent</text>
</g>
<!-- NewCustomerComponent&#45;&gt;AppModule -->
<g id="edge10" class="edge">
<title>NewCustomerComponent&#45;&gt;AppModule</title>
<path fill="none" stroke="black" d="M772,-122.03C772,-139.06 772,-162 772,-162 772,-162 1183.1,-162 1183.1,-162"/>
<polygon fill="black" stroke="black" points="1183.1,-165.5 1193.1,-162 1183.1,-158.5 1183.1,-165.5"/>
</g>
<!-- SideBarComponent -->
<g id="node11" class="node">
<title>SideBarComponent</title>
<polygon fill="#ffffb3" stroke="black" points="673.43,-122 546.57,-122 546.57,-86 673.43,-86 673.43,-122"/>
<text text-anchor="middle" x="610" y="-99.8" font-family="Times,serif" font-size="14.00">SideBarComponent</text>
</g>
<!-- SideBarComponent&#45;&gt;AppModule -->
<g id="edge11" class="edge">
<title>SideBarComponent&#45;&gt;AppModule</title>
<path fill="none" stroke="black" d="M610,-122.22C610,-140.83 610,-167 610,-167 610,-167 1183.02,-167 1183.02,-167"/>
<polygon fill="black" stroke="black" points="1183.02,-170.5 1193.02,-167 1183.02,-163.5 1183.02,-170.5"/>
</g>
<!-- TopWidgetComponent -->
<g id="node12" class="node">
<title>TopWidgetComponent</title>
<polygon fill="#ffffb3" stroke="black" points="528.6,-122 383.4,-122 383.4,-86 528.6,-86 528.6,-122"/>
<text text-anchor="middle" x="456" y="-99.8" font-family="Times,serif" font-size="14.00">TopWidgetComponent</text>
</g>
<!-- TopWidgetComponent&#45;&gt;AppModule -->
<g id="edge12" class="edge">
<title>TopWidgetComponent&#45;&gt;AppModule</title>
<path fill="none" stroke="black" d="M456,-122.22C456,-142.37 456,-172 456,-172 456,-172 1183.12,-172 1183.12,-172"/>
<polygon fill="black" stroke="black" points="1183.12,-175.5 1193.12,-172 1183.12,-168.5 1183.12,-175.5"/>
</g>
<!-- TransactionPerAgeComponent -->
<g id="node13" class="node">
<title>TransactionPerAgeComponent</title>
<polygon fill="#ffffb3" stroke="black" points="365.89,-122 176.11,-122 176.11,-86 365.89,-86 365.89,-122"/>
<text text-anchor="middle" x="271" y="-99.8" font-family="Times,serif" font-size="14.00">TransactionPerAgeComponent</text>
</g>
<!-- TransactionPerAgeComponent&#45;&gt;AppModule -->
<g id="edge13" class="edge">
<title>TransactionPerAgeComponent&#45;&gt;AppModule</title>
<path fill="none" stroke="black" d="M271,-122.04C271,-143.66 271,-177 271,-177 271,-177 1183.27,-177 1183.27,-177"/>
<polygon fill="black" stroke="black" points="1183.27,-180.5 1193.27,-177 1183.27,-173.5 1183.27,-180.5"/>
</g>
<!-- AppComponent  -->
<g id="node16" class="node">
<title>AppComponent </title>
<polygon fill="#80b1d3" stroke="black" points="1289.44,-252 1180.56,-252 1180.56,-216 1289.44,-216 1289.44,-252"/>
<text text-anchor="middle" x="1235" y="-229.8" font-family="Times,serif" font-size="14.00">AppComponent </text>
</g>
<!-- AppModule&#45;&gt;AppComponent  -->
<g id="edge15" class="edge">
<title>AppModule&#45;&gt;AppComponent </title>
<path fill="none" stroke="black" stroke-dasharray="1,5" d="M1235,-187.11C1235,-187.11 1235,-205.99 1235,-205.99"/>
<polygon fill="black" stroke="black" points="1231.5,-205.99 1235,-215.99 1238.5,-205.99 1231.5,-205.99"/>
</g>
<!-- AppRoutingModule -->
<g id="node15" class="node">
<title>AppRoutingModule</title>
<polygon fill="#8dd3c7" stroke="black" points="152.27,-122 149.27,-126 128.27,-126 125.27,-122 23.73,-122 23.73,-86 152.27,-86 152.27,-122"/>
<text text-anchor="middle" x="88" y="-99.8" font-family="Times,serif" font-size="14.00">AppRoutingModule</text>
</g>
<!-- AppRoutingModule&#45;&gt;AppModule -->
<g id="edge14" class="edge">
<title>AppRoutingModule&#45;&gt;AppModule</title>
<path fill="none" stroke="black" d="M88,-122.09C88,-145.13 88,-182 88,-182 88,-182 1183.16,-182 1183.16,-182"/>
<polygon fill="black" stroke="black" points="1183.16,-185.5 1193.16,-182 1183.16,-178.5 1183.16,-185.5"/>
</g>
</g>
</svg>
